<svg id="Laag_1" data-name="Laag 1" xmlns="http://www.w3.org/2000/svg" viewBox="0 0 285.91 285.91"><defs><style>.cls-1{fill:#e4f1fa;}.cls-17,.cls-2,.cls-5{fill:none;}.cls-2{stroke:#4eaa74;stroke-width:3px;}.cls-10,.cls-2,.cls-5,.cls-6,.cls-9{stroke-miterlimit:10;}.cls-3{fill:#4eaa75;}.cls-4{fill:#4eaa74;}.cls-5,.cls-6{stroke:#686a6a;stroke-width:2px;}.cls-16,.cls-17,.cls-5{stroke-linecap:round;}.cls-6{fill:#686a6a;}.cls-7{fill:#a1633a;}.cls-8{fill:#6a410f;opacity:0.5;isolation:isolate;}.cls-10,.cls-9{fill:#c2c1c1;}.cls-9{stroke:#030405;}.cls-10{stroke:#c3c1c1;}.cls-11{fill:#fef1d2;}.cls-12{fill:#f08166;}.cls-13{fill:#f29273;}.cls-14{fill:#328434;}.cls-15{fill:#fff;}.cls-16{fill:#1e3663;stroke:#1e3663;}.cls-16,.cls-17{stroke-linejoin:round;}.cls-17{stroke:#080909;stroke-width:0.25px;}.cls-18{fill:#1c2848;}.cls-19{fill:#d17d35;}.cls-20{fill:#1a3762;}</style></defs><title>Afbeedling online reservering</title><g id="Group_41" data-name="Group 41"><circle id="Ellipse_16" data-name="Ellipse 16" class="cls-1" cx="142.95" cy="142.95" r="142.95"/><g id="Group_36" data-name="Group 36"><circle id="Ellipse_16-2" data-name="Ellipse 16-2" class="cls-2" cx="88.65" cy="71.7" r="28.9"/><rect id="Rectangle_82" data-name="Rectangle 82" class="cls-3" x="87.72" y="42.55" width="2.03" height="7.02" rx="0.89"/><rect id="Rectangle_83" data-name="Rectangle 83" class="cls-4" x="87.75" y="93.83" width="2.03" height="7.02" rx="0.89"/><rect id="Rectangle_84" data-name="Rectangle 84" class="cls-3" x="58.98" y="69.88" width="7.02" height="2.03" rx="0.89"/><rect id="Rectangle_85" data-name="Rectangle 85" class="cls-3" x="111.04" y="69.68" width="7.02" height="2.03" rx="0.89"/><path id="Path_214" data-name="Path 214" class="cls-5" d="M232.86,333.49l12.21,15.11,10-7.92" transform="translate(-155.05 -278.05)"/><circle id="Ellipse_16-3" data-name="Ellipse 16-3" class="cls-6" cx="89.89" cy="71.35" r="1.17"/></g><g id="Group_37" data-name="Group 37"><path id="Path_215" data-name="Path 215" class="cls-7" d="M272.49,434.56l-6.13,34.37h4.36l8.55-34.37Z" transform="translate(-155.05 -278.05)"/><path id="Path_216" data-name="Path 216" class="cls-7" d="M349.46,434.56h6.78L363,468.93H358Z" transform="translate(-155.05 -278.05)"/><rect id="Rectangle_86" data-name="Rectangle 86" class="cls-8" x="111.31" y="144.98" width="96.59" height="11.53"/><path id="Path_217" data-name="Path 217" class="cls-7" d="M274.68,423l1.58,3.13h9.92l1.57-3.13Z" transform="translate(-155.05 -278.05)"/><rect id="Rectangle_87" data-name="Rectangle 87" class="cls-7" x="139.35" y="144.98" width="3.32" height="11.53"/><rect id="Rectangle_88" data-name="Rectangle 88" class="cls-7" x="175.95" y="144.98" width="3.32" height="11.53"/></g><g id="Group_39" data-name="Group 39"><g id="Group_38" data-name="Group 38"><path id="Path_218" data-name="Path 218" class="cls-9" d="M336.09,410.2H297.85a3.44,3.44,0,0,1-3.45-3.44V381a3.44,3.44,0,0,1,3.45-3.44h38.24a3.44,3.44,0,0,1,3.45,3.44v25.72a3.44,3.44,0,0,1-3.45,3.45Z" transform="translate(-155.05 -278.05)"/><path id="Path_219" data-name="Path 219" class="cls-10" d="M311.65,410.41l-2.27,9.4-4.08,0V423h20.78l-4.53-12.62" transform="translate(-155.05 -278.05)"/></g><rect id="Rectangle_89" data-name="Rectangle 89" class="cls-11" x="139.65" y="99.84" width="44.58" height="28.6" rx="3.24"/><rect id="Rectangle_90" data-name="Rectangle 90" class="cls-11" x="139.65" y="121.98" width="44.58" height="6.45"/></g><g id="Group_40" data-name="Group 40"><path id="Path_220" data-name="Path 220" class="cls-12" d="M270.24,484.69v.05c0,.34-.11,2.25-.38,2.27h0a4.35,4.35,0,0,0,2.33,1.48c.81.24,1.65.25,1.69.5a.11.11,0,0,1-.05.12s1.44-4.65.92-4.65a8.79,8.79,0,0,0-4.41.23" transform="translate(-155.05 -278.05)"/><path id="Path_221" data-name="Path 221" class="cls-13" d="M274.54,484.09c3.11-.32,6.26-.53,6.41,0a.36.36,0,0,1,0,.14h0a7.21,7.21,0,0,1-.19,1.54c0,.33-.25,2,.63,2.83a2.63,2.63,0,0,0,.4.28c.54.27,1,.15,1.32.47a.71.71,0,0,0,.12.13c.15.14.33.18.77.53s.58.46.57.6c0,.33-.87.6-1.58.62a8.39,8.39,0,0,1-1.49-.23,11.94,11.94,0,0,1-7.12-1.91,8.23,8.23,0,0,1-.71-.59C274,487,274.25,485.55,274.54,484.09Z" transform="translate(-155.05 -278.05)"/><path id="Path_222" data-name="Path 222" class="cls-13" d="M306.3,397.66c.16-.26.4-.65.66-1.15.5-1,.56-1.3.84-1.74s.7-.8,2-1.49a36.39,36.39,0,0,1,3.6-1.63c.73-.28,1.33-.31,1.42-.13s-.27.63-.89,1l-2.68,1.69.37.31c.39.33.45.39.48.49s-.16.51-.29.63a.52.52,0,0,1,.46.48.48.48,0,0,1-.31.47.7.7,0,0,1,.06,1h0a2.11,2.11,0,0,1-1.21.88c-.49.11-.76-.07-1.25.05a2.14,2.14,0,0,0-1.19.87l-2.07-1.72" transform="translate(-155.05 -278.05)"/><path id="Path_223" data-name="Path 223" class="cls-13" d="M279.16,396.77l1.89.44c.75.17,1.24.29,1.64,0a1.22,1.22,0,0,0,.3-.34,7.25,7.25,0,0,0,.81-1.5c.64-1.67.62-1.37.76-1.87a29.38,29.38,0,0,0,.3-3,7.28,7.28,0,0,0,0-1.4,4.09,4.09,0,0,0-.26-1.34,7.75,7.75,0,0,0-1.19-1.66h0L278,393.87Z" transform="translate(-155.05 -278.05)"/><path id="Path_224" data-name="Path 224" class="cls-14" d="M271.68,401.91h-.08l-4.58-.65s-9.11,14.9-8.24,18.09,10.7,9.9,10.7,9.9l1.8-3.32a52.49,52.49,0,0,0,6.42,1.4c5.1.8,9.79,1.6,11-.34.63-1-.61-1.56-.77-5.07-.12-2.59-.2-4.48.93-5.81a3.67,3.67,0,0,0,1.17-2.19,2.52,2.52,0,0,0-.14-1l2.3.78c2.07.71,2.6.91,3.33.83a4.23,4.23,0,0,0,2.29-1.21,42.5,42.5,0,0,0,6-7c1-1.42,2.68-3.83,4.94-7l-2.39-2-13.75,10.33c-1.85-1.37-3.42-2.5-4.6-3.33-.12-.09-1.54-1.08-3.48-2.33-2.22-1.41-3.15-1.89-4.4-1.9a4.6,4.6,0,0,0-2.16.46c-1.27.63-1.4,1.65-2.52,1.93a3.66,3.66,0,0,1-2.31-.16Z" transform="translate(-155.05 -278.05)"/><path id="Path_225" data-name="Path 225" class="cls-15" d="M265.56,417l.79-.92,6.89,6.78-1.5,2.39Z" transform="translate(-155.05 -278.05)"/><path id="Path_226" data-name="Path 226" class="cls-16" d="M271.88,425.33a31.81,31.81,0,0,0,16.94,1.17,39.65,39.65,0,0,1,1.2,10.4c-.09,4.63-1,8.09-2.45,13.6a114.11,114.11,0,0,1-3.67,11.42c-.2,1.38-.47,3.28-.78,5.56-.63,4.75-.45,4-.68,5.38-.47,2.78-1.81,9.41-1.25,10.47,0,.07.27.47.12.7a.47.47,0,0,1-.32.16c-.87.13-1.35.79-2.93,1a4.56,4.56,0,0,1-2.2-.16,13,13,0,0,1-1.45-.72h0a5.54,5.54,0,0,1-1.52.65,3.56,3.56,0,0,1-2.31-.36h0c.13-.09-2.15-11.71-2.15-17,0,0,0-.35,2-10.65h0a76.37,76.37,0,0,0-1.2-9.78c-1.19-6.3-2.48-8.76-1.45-12.6a36.5,36.5,0,0,1,2-5.36A41.67,41.67,0,0,1,271.88,425.33Z" transform="translate(-155.05 -278.05)"/><path id="Path_227" data-name="Path 227" class="cls-17" d="M291.79,472.28" transform="translate(-155.05 -278.05)"/><path id="Path_228" data-name="Path 228" class="cls-18" d="M274.34,429.65a11.63,11.63,0,0,0,1.25,13.83,45.16,45.16,0,0,1,.54,6.46c.09,6.93-1.45,11.73-2.25,15.16a53.78,53.78,0,0,0-.67,19.87c-.07.19-.08.31,0,.37s.5-.06,1.16-.52c-.11-4.14,0-7.57.14-10.09a41.85,41.85,0,0,1,.56-6c.6-2.82,1.29-3.77,1.5-6.64.1-1.37,0-1.57.1-3.66.13-2.34.41-4.06.51-4.76.31-2,.71-5.41,1-11.15a9.7,9.7,0,0,1-4.13-4.61A10.44,10.44,0,0,1,274.34,429.65Z" transform="translate(-155.05 -278.05)"/><path id="Path_229" data-name="Path 229" class="cls-19" d="M284.81,389.82c.37.38.6.42.74.38.67-.2.6-2.63.32-4.27a7.53,7.53,0,0,0-.63-2.27c-2.08-4-9.74-4.8-9.75-4.8a7.12,7.12,0,0,0-2.61,1.23c-3.61,2.78-3.63,8.85-3.64,9.86a17,17,0,0,1-.15,2.47,20.36,20.36,0,0,1-.49,2.47c-.75,2.78-2.6,6.5-3.29,8.36a16.72,16.72,0,0,0-.53,9.11c.9,4.41,4.08,10.45,9,11.1a7.49,7.49,0,0,0,3.42-.4l2.24-1.18a26.14,26.14,0,0,1-1.76-5.25,30.35,30.35,0,0,1-.64-6.45c-.11-3.9.28-5.63.75-6.93.9-2.51,1.8-2.65,2-2.67a1.7,1.7,0,0,1,1.25.55,7.78,7.78,0,0,1-.59-3.13,10.51,10.51,0,0,1,1.88-5.2c.37-.6.44-.6.74-1.11a12.3,12.3,0,0,0,1.62-5,12.57,12.57,0,0,1-.07,2.21c-.1,1.1-.34,2.21-.86,2.21a1.08,1.08,0,0,0,1.05-1.33Z" transform="translate(-155.05 -278.05)"/><path id="Path_230" data-name="Path 230" class="cls-18" d="M270.12,486.78a2.54,2.54,0,0,1,1.74.08c.44.21.57.5,1.35,1.28.31.31.58.55.75.7-.32,1.07-.65,2.14-1,3.21a4.3,4.3,0,0,1-3.15-.25,3,3,0,0,1-1-.92,8.67,8.67,0,0,1,.34-1.95A9.29,9.29,0,0,1,270.12,486.78Z" transform="translate(-155.05 -278.05)"/><path id="Path_231" data-name="Path 231" class="cls-20" d="M273.79,488.43a6.85,6.85,0,0,0-.8,3.35,2.2,2.2,0,0,0,.3,1.43c.79,1,3,.82,3.87.56a10.92,10.92,0,0,1,1.37-.33,16.4,16.4,0,0,1,2.71-.2,14.18,14.18,0,0,0,4.1-.55,9.47,9.47,0,0,0,2-.95c.12-.1,1.37-1.21,1.06-2-.19-.47-.85-.64-1.57-.71-3.45-.32-4.89,0-5.37-.4,0,0-.06-.08-.08-.07s-.06.46.16.77.37.21.72.53.4.37.39.52c0,.33-.85.58-1.54.6a4,4,0,0,1-1.94-.5c-2.27-1.07-2.84-2-4.33-2.11A4.43,4.43,0,0,0,273.79,488.43Z" transform="translate(-155.05 -278.05)"/></g></g></svg>