<svg id="Laag_1" data-name="Laag 1" xmlns="http://www.w3.org/2000/svg" viewBox="0 0 529.68 677.22"><defs><style>.cls-1{fill:#0b4774;}</style></defs><g id="Group_24" data-name="Group 24"><g id="Group_19" data-name="Group 19"><path id="Path_15" data-name="Path 15" class="cls-1" d="M127,185.13a22.24,22.24,0,0,0-3.6,15.81,21.6,21.6,0,0,0,5.49,11.13,21.72,21.72,0,0,0-26.49,1.85,18.56,18.56,0,0,0-1.09-26.24c-.26-.24-.53-.47-.8-.69a18.64,18.64,0,0,0,26.32-1.67l.17-.19Z" transform="translate(-33.24 -82.09)"/><rect id="Rectangle_66" data-name="Rectangle 66" class="cls-1" x="111.88" y="125.28" width="37.68" height="37.08" transform="translate(-42.98 -72.59) rotate(-4.01)"/><rect id="Rectangle_67" data-name="Rectangle 67" class="cls-1" x="152.01" y="159.41" width="37.68" height="37.08" transform="translate(-45.27 -69.7) rotate(-4.01)"/><path id="Path_16" data-name="Path 16" class="cls-1" d="M95.05,82.09a29.23,29.23,0,0,0-4.74,20.81,28.53,28.53,0,0,0,7.22,14.64A28.58,28.58,0,0,0,62.68,120a24.44,24.44,0,0,0-1.43-34.53c-.34-.32-.69-.62-1-.91a24.55,24.55,0,0,0,34.64-2.21l.21-.24Z" transform="translate(-33.24 -82.09)"/><path id="Path_17" data-name="Path 17" class="cls-1" d="M205,110.31a22.31,22.31,0,0,0-3.6,15.82,21.72,21.72,0,0,0,5.49,11.12,21.7,21.7,0,0,0-26.48,1.86,18.58,18.58,0,0,0-1.1-26.25l-.79-.69a18.65,18.65,0,0,0,26.32-1.67,1.46,1.46,0,0,0,.16-.19Z" transform="translate(-33.24 -82.09)"/><path id="Path_18" data-name="Path 18" class="cls-1" d="M240.64,202.87a29.33,29.33,0,0,0-4.74,20.81,28.47,28.47,0,0,0,7.23,14.64,28.58,28.58,0,0,0-34.85,2.44,24.43,24.43,0,0,0-1.44-34.52c-.34-.32-.69-.63-1.05-.92a24.54,24.54,0,0,0,34.64-2.2l.21-.25Z" transform="translate(-33.24 -82.09)"/></g><g id="Group_20" data-name="Group 20"><path id="Path_15-2" data-name="Path 15-2" class="cls-1" d="M446.79,528.68a22.29,22.29,0,0,0-3.6,15.81,21.67,21.67,0,0,0,5.49,11.13,21.72,21.72,0,0,0-26.49,1.85,18.56,18.56,0,0,0-1.09-26.24c-.26-.24-.52-.47-.8-.69a18.66,18.66,0,0,0,26.33-1.67c.05-.06.1-.13.16-.19Z" transform="translate(-33.24 -82.09)"/><rect id="Rectangle_66-2" data-name="Rectangle 66-2" class="cls-1" x="431.67" y="468.83" width="37.68" height="37.08" transform="translate(-66.24 -49.36) rotate(-4.01)"/><rect id="Rectangle_67-2" data-name="Rectangle 67-2" class="cls-1" x="471.8" y="502.96" width="37.68" height="37.08" transform="translate(-68.53 -46.47) rotate(-4.01)"/><path id="Path_16-2" data-name="Path 16-2" class="cls-1" d="M414.84,425.64a29.28,29.28,0,0,0-4.74,20.81,28.47,28.47,0,0,0,7.23,14.64,28.6,28.6,0,0,0-34.86,2.44A24.44,24.44,0,0,0,381,429c-.34-.32-.69-.62-1.05-.91a24.57,24.57,0,0,0,34.65-2.21l.2-.24Z" transform="translate(-33.24 -82.09)"/><path id="Path_17-2" data-name="Path 17-2" class="cls-1" d="M524.81,453.86a22.21,22.21,0,0,0-3.6,15.82,21.63,21.63,0,0,0,5.48,11.12,21.7,21.7,0,0,0-26.48,1.86,18.59,18.59,0,0,0-1.09-26.25l-.8-.69a18.64,18.64,0,0,0,26.32-1.67,1.46,1.46,0,0,0,.16-.19Z" transform="translate(-33.24 -82.09)"/><path id="Path_18-2" data-name="Path 18-2" class="cls-1" d="M560.43,546.42a29.27,29.27,0,0,0-4.73,20.81,28.38,28.38,0,0,0,7.22,14.64,28.58,28.58,0,0,0-34.85,2.44,24.43,24.43,0,0,0-1.43-34.52c-.35-.32-.7-.63-1.06-.92a24.54,24.54,0,0,0,34.64-2.2l.21-.25Z" transform="translate(-33.24 -82.09)"/></g><g id="Group_21" data-name="Group 21"><path id="Path_15-3" data-name="Path 15-3" class="cls-1" d="M100,431.67a22.23,22.23,0,0,0-3.6,15.81,21.57,21.57,0,0,0,5.49,11.12,21.72,21.72,0,0,0-26.49,1.86,18.56,18.56,0,0,0-1.09-26.24c-.26-.24-.53-.47-.8-.69a18.65,18.65,0,0,0,26.32-1.68l.17-.18Z" transform="translate(-33.24 -82.09)"/><rect id="Rectangle_66-3" data-name="Rectangle 66-3" class="cls-1" x="84.92" y="371.82" width="37.68" height="37.08" transform="translate(-60.3 -73.87) rotate(-4.01)"/><rect id="Rectangle_67-3" data-name="Rectangle 67-3" class="cls-1" x="125.05" y="405.95" width="37.68" height="37.08" transform="translate(-62.59 -70.98) rotate(-4.01)"/><path id="Path_16-3" data-name="Path 16-3" class="cls-1" d="M68.09,328.63a29.2,29.2,0,0,0-4.74,20.81,28.46,28.46,0,0,0,7.22,14.63,28.58,28.58,0,0,0-34.85,2.45A24.45,24.45,0,0,0,34.29,332l-1-.91a24.54,24.54,0,0,0,34.64-2.21l.21-.23Z" transform="translate(-33.24 -82.09)"/><path id="Path_17-3" data-name="Path 17-3" class="cls-1" d="M178.05,356.85a22.31,22.31,0,0,0-3.6,15.82,21.72,21.72,0,0,0,5.49,11.12,21.71,21.71,0,0,0-26.48,1.85,18.57,18.57,0,0,0-1.1-26.24c-.26-.24-.52-.47-.79-.69A18.65,18.65,0,0,0,177.89,357l.16-.19Z" transform="translate(-33.24 -82.09)"/><path id="Path_18-3" data-name="Path 18-3" class="cls-1" d="M213.68,449.41a29.31,29.31,0,0,0-4.74,20.81,28.4,28.4,0,0,0,7.23,14.63,28.6,28.6,0,0,0-34.85,2.45,24.45,24.45,0,0,0-1.44-34.53c-.34-.31-.69-.62-1-.91a24.55,24.55,0,0,0,34.64-2.2l.21-.25Z" transform="translate(-33.24 -82.09)"/></g><g id="Group_22" data-name="Group 22"><path id="Path_15-4" data-name="Path 15-4" class="cls-1" d="M137.17,703.68a22.24,22.24,0,0,0-3.6,15.81,21.66,21.66,0,0,0,5.48,11.13,21.71,21.71,0,0,0-26.48,1.85,18.57,18.57,0,0,0-1.09-26.24c-.26-.24-.53-.47-.8-.69A18.64,18.64,0,0,0,137,703.87l.17-.19Z" transform="translate(-33.24 -82.09)"/><rect id="Rectangle_66-4" data-name="Rectangle 66-4" class="cls-1" x="122.05" y="643.83" width="37.68" height="37.08" transform="translate(-79.25 -70.6) rotate(-4.01)"/><rect id="Rectangle_67-4" data-name="Rectangle 67-4" class="cls-1" x="162.18" y="677.96" width="37.68" height="37.08" transform="translate(-81.54 -67.71) rotate(-4.01)"/><path id="Path_16-4" data-name="Path 16-4" class="cls-1" d="M105.22,600.64a29.23,29.23,0,0,0-4.74,20.81,28.53,28.53,0,0,0,7.22,14.64,28.58,28.58,0,0,0-34.85,2.44A24.44,24.44,0,0,0,71.42,604c-.35-.32-.7-.62-1-.91A24.55,24.55,0,0,0,105,600.88l.21-.24Z" transform="translate(-33.24 -82.09)"/><path id="Path_17-4" data-name="Path 17-4" class="cls-1" d="M215.18,628.86a22.31,22.31,0,0,0-3.6,15.82,21.72,21.72,0,0,0,5.49,11.12,21.69,21.69,0,0,0-26.48,1.86,18.58,18.58,0,0,0-1.1-26.25l-.79-.69A18.65,18.65,0,0,0,215,629.05c0-.06.11-.12.16-.19Z" transform="translate(-33.24 -82.09)"/><path id="Path_18-4" data-name="Path 18-4" class="cls-1" d="M250.81,721.42a29.33,29.33,0,0,0-4.74,20.81,28.47,28.47,0,0,0,7.23,14.64,28.6,28.6,0,0,0-34.86,2.44A24.43,24.43,0,0,0,217,724.79c-.34-.32-.69-.63-1-.92a24.54,24.54,0,0,0,34.64-2.2l.21-.25Z" transform="translate(-33.24 -82.09)"/></g></g></svg>