<svg id="Laag_1" data-name="Laag 1" xmlns="http://www.w3.org/2000/svg" viewBox="0 0 529.68 677.22"><defs><style>.cls-1{fill:#0b4774;}</style></defs><g id="Group_24" data-name="Group 24"><g id="Group_19" data-name="Group 19"><path id="Path_15" data-name="Path 15" class="cls-1" d="M469.16,185.13l.16.19A18.65,18.65,0,0,0,495.64,187c-.27.22-.53.45-.79.69a18.57,18.57,0,0,0-1.1,26.24,21.71,21.71,0,0,0-26.48-1.85,21.58,21.58,0,0,0,5.48-11.13,22.24,22.24,0,0,0-3.59-15.81Z" transform="translate(-33.24 -82.09)"/><rect id="Rectangle_66" data-name="Rectangle 66" class="cls-1" x="446.9" y="124.98" width="37.08" height="37.68" transform="translate(256.15 515.96) rotate(-85.99)"/><rect id="Rectangle_67" data-name="Rectangle 67" class="cls-1" x="406.77" y="159.11" width="37.08" height="37.68" transform="translate(184.79 507.67) rotate(-85.99)"/><path id="Path_16" data-name="Path 16" class="cls-1" d="M501.11,82.09l.2.24A24.57,24.57,0,0,0,536,84.54c-.36.29-.71.59-1.05.91A24.44,24.44,0,0,0,533.47,120a28.58,28.58,0,0,0-34.85-2.44,28.47,28.47,0,0,0,7.23-14.64,29.33,29.33,0,0,0-4.74-20.81Z" transform="translate(-33.24 -82.09)"/><path id="Path_17" data-name="Path 17" class="cls-1" d="M391.14,110.31l.16.19a18.66,18.66,0,0,0,26.33,1.67l-.8.69a18.58,18.58,0,0,0-1.09,26.25,21.71,21.71,0,0,0-26.49-1.86,21.57,21.57,0,0,0,5.49-11.12,22.26,22.26,0,0,0-3.6-15.82Z" transform="translate(-33.24 -82.09)"/><path id="Path_18" data-name="Path 18" class="cls-1" d="M355.52,202.87l.21.25a24.54,24.54,0,0,0,34.64,2.2c-.36.29-.71.6-1.06.92a24.43,24.43,0,0,0-1.43,34.52A28.58,28.58,0,0,0,353,238.32a28.45,28.45,0,0,0,7.22-14.64,29.27,29.27,0,0,0-4.73-20.81Z" transform="translate(-33.24 -82.09)"/></g><g id="Group_20" data-name="Group 20"><path id="Path_15-2" data-name="Path 15-2" class="cls-1" d="M149.37,528.68l.16.19a18.65,18.65,0,0,0,26.32,1.67c-.27.22-.53.45-.79.69a18.57,18.57,0,0,0-1.1,26.24,21.71,21.71,0,0,0-26.48-1.85A21.66,21.66,0,0,0,153,544.49a22.29,22.29,0,0,0-3.59-15.81Z" transform="translate(-33.24 -82.09)"/><rect id="Rectangle_66-2" data-name="Rectangle 66-2" class="cls-1" x="127.1" y="468.53" width="37.08" height="37.68" transform="translate(-383.97 516.46) rotate(-85.99)"/><rect id="Rectangle_67-2" data-name="Rectangle 67-2" class="cls-1" x="86.97" y="502.66" width="37.08" height="37.68" transform="translate(-455.33 508.17) rotate(-85.99)"/><path id="Path_16-2" data-name="Path 16-2" class="cls-1" d="M181.32,425.64l.2.24a24.57,24.57,0,0,0,34.65,2.21c-.36.29-.71.59-1,.91a24.43,24.43,0,0,0-1.44,34.53,28.58,28.58,0,0,0-34.85-2.44,28.38,28.38,0,0,0,7.22-14.64,29.27,29.27,0,0,0-4.73-20.81Z" transform="translate(-33.24 -82.09)"/><path id="Path_17-2" data-name="Path 17-2" class="cls-1" d="M71.35,453.86l.16.19a18.66,18.66,0,0,0,26.33,1.67c-.28.23-.54.46-.8.69A18.58,18.58,0,0,0,96,482.66a21.71,21.71,0,0,0-26.49-1.86A21.57,21.57,0,0,0,75,469.68a22.26,22.26,0,0,0-3.6-15.82Z" transform="translate(-33.24 -82.09)"/><path id="Path_18-2" data-name="Path 18-2" class="cls-1" d="M35.72,546.42a2.62,2.62,0,0,0,.22.25,24.53,24.53,0,0,0,34.63,2.2c-.36.29-.71.6-1,.92a24.43,24.43,0,0,0-1.43,34.52,28.58,28.58,0,0,0-34.85-2.44,28.53,28.53,0,0,0,7.22-14.64,29.27,29.27,0,0,0-4.73-20.81Z" transform="translate(-33.24 -82.09)"/></g><g id="Group_21" data-name="Group 21"><path id="Path_15-3" data-name="Path 15-3" class="cls-1" d="M496.12,431.67l.16.18a18.66,18.66,0,0,0,26.33,1.68c-.28.22-.54.45-.8.69a18.56,18.56,0,0,0-1.09,26.24,21.72,21.72,0,0,0-26.49-1.86,21.55,21.55,0,0,0,5.48-11.12,22.23,22.23,0,0,0-3.59-15.81Z" transform="translate(-33.24 -82.09)"/><rect id="Rectangle_66-3" data-name="Rectangle 66-3" class="cls-1" x="473.86" y="371.52" width="37.08" height="37.68" transform="translate(35.29 772.14) rotate(-85.99)"/><rect id="Rectangle_67-3" data-name="Rectangle 67-3" class="cls-1" x="433.73" y="405.65" width="37.08" height="37.68" transform="translate(-36.07 763.85) rotate(-85.99)"/><path id="Path_16-3" data-name="Path 16-3" class="cls-1" d="M528.07,328.63c.07.08.13.16.2.23a24.55,24.55,0,0,0,34.65,2.21c-.36.3-.71.6-1,.91a24.46,24.46,0,0,0-1.44,34.54,28.58,28.58,0,0,0-34.85-2.45,28.4,28.4,0,0,0,7.23-14.63,29.3,29.3,0,0,0-4.74-20.81Z" transform="translate(-33.24 -82.09)"/><path id="Path_17-3" data-name="Path 17-3" class="cls-1" d="M418.1,356.85l.17.19a18.64,18.64,0,0,0,26.32,1.67c-.27.22-.54.45-.8.69a18.56,18.56,0,0,0-1.09,26.24,21.72,21.72,0,0,0-26.49-1.85,21.57,21.57,0,0,0,5.49-11.12,22.21,22.21,0,0,0-3.6-15.82Z" transform="translate(-33.24 -82.09)"/><path id="Path_18-3" data-name="Path 18-3" class="cls-1" d="M382.48,449.41l.21.25a24.55,24.55,0,0,0,34.64,2.2c-.36.29-.71.6-1.06.91a24.44,24.44,0,0,0-1.43,34.53A28.6,28.6,0,0,0,380,484.85a28.31,28.31,0,0,0,7.22-14.63,29.26,29.26,0,0,0-4.73-20.81Z" transform="translate(-33.24 -82.09)"/></g><g id="Group_22" data-name="Group 22"><path id="Path_15-4" data-name="Path 15-4" class="cls-1" d="M459,703.68l.16.19a18.66,18.66,0,0,0,26.33,1.67c-.28.22-.54.45-.8.69a18.56,18.56,0,0,0-1.09,26.24,21.72,21.72,0,0,0-26.49-1.85,21.58,21.58,0,0,0,5.48-11.13A22.24,22.24,0,0,0,459,703.68Z" transform="translate(-33.24 -82.09)"/><rect id="Rectangle_66-4" data-name="Rectangle 66-4" class="cls-1" x="436.73" y="643.53" width="37.08" height="37.68" transform="translate(-270.58 988.07) rotate(-85.99)"/><rect id="Rectangle_67-4" data-name="Rectangle 67-4" class="cls-1" x="396.6" y="677.66" width="37.08" height="37.68" transform="translate(-341.95 979.78) rotate(-85.99)"/><path id="Path_16-4" data-name="Path 16-4" class="cls-1" d="M490.94,600.64l.2.24a24.57,24.57,0,0,0,34.65,2.21c-.36.29-.71.59-1,.91a24.45,24.45,0,0,0-1.44,34.53,28.58,28.58,0,0,0-34.85-2.44,28.47,28.47,0,0,0,7.23-14.64,29.33,29.33,0,0,0-4.74-20.81Z" transform="translate(-33.24 -82.09)"/><path id="Path_17-4" data-name="Path 17-4" class="cls-1" d="M381,628.86l.17.19a18.64,18.64,0,0,0,26.32,1.67l-.8.69a18.58,18.58,0,0,0-1.09,26.25,21.71,21.71,0,0,0-26.49-1.86,21.57,21.57,0,0,0,5.49-11.12,22.21,22.21,0,0,0-3.6-15.82Z" transform="translate(-33.24 -82.09)"/><path id="Path_18-4" data-name="Path 18-4" class="cls-1" d="M345.35,721.42l.21.25a24.54,24.54,0,0,0,34.64,2.2c-.36.29-.71.6-1.06.92a24.43,24.43,0,0,0-1.43,34.52,28.58,28.58,0,0,0-34.85-2.44,28.38,28.38,0,0,0,7.22-14.64,29.27,29.27,0,0,0-4.73-20.81Z" transform="translate(-33.24 -82.09)"/></g></g></svg>