<svg id="Laag_1" data-name="Laag 1" xmlns="http://www.w3.org/2000/svg" viewBox="0 0 505.17 473.2"><defs><style>.cls-1{fill:#fef1d2;}.cls-2{fill:#050606;}.cls-3,.cls-4{fill:#1e3663;}.cls-3,.cls-4,.cls-7{stroke:#1e3663;stroke-linecap:round;stroke-linejoin:round;}.cls-5{fill:#4eaa74;}.cls-6{fill:#d5dfbd;}.cls-7{fill:none;stroke-width:8px;}.cls-8{fill:#386bab;}</style></defs><title>Samenvatting</title><g id="Group_208" data-name="Group 208"><g id="Group_173" data-name="Group 173"><circle id="Ellipse_16" data-name="Ellipse 16" class="cls-1" cx="108.42" cy="108.42" r="108.42"/><g id="Group_168" data-name="Group 168"><rect id="Rectangle_209" data-name="Rectangle 209" class="cls-2" x="99.08" y="275.02" width="82.72" height="11.17" rx="1.1" transform="translate(-140.86 -110.73) rotate(-22.15)"/><path id="Path_276" data-name="Path 276" class="cls-3" d="M138.89,290.23a241,241,0,0,1,11,25.52c10.93,29.91,11.82,50.72,22.27,52.75.51.1,4.18.77,6.11-1.26,5.26-5.52-9.63-23.72-22.4-54.82-4.58-11.15-7.66-20.28-9.31-25.38Z" transform="translate(-45.42 -184.4)"/><rect id="Rectangle_210" data-name="Rectangle 210" class="cls-4" x="106.63" y="281.91" width="72.23" height="8.71" rx="1.16" transform="translate(-142.82 -109.44) rotate(-22.15)"/></g><g id="Group_172" data-name="Group 172"><g id="Group_169" data-name="Group 169"><path id="Path_16-2" data-name="Path 16-2" class="cls-5" d="M116.2,258.43h.15a11.53,11.53,0,0,0,12-11c0,.22,0,.43,0,.65a11.49,11.49,0,0,0,11.22,11.74h0a13.42,13.42,0,0,0-12.18,11,13.39,13.39,0,0,0-2.6-7.21,13.73,13.73,0,0,0-8.59-5.18Z" transform="translate(-45.42 -184.4)"/><path id="Path_17-2" data-name="Path 17-2" class="cls-6" d="M123.38,260.33h.06a4.38,4.38,0,0,0,4.57-4.18c0,.09,0,.17,0,.25a4.37,4.37,0,0,0,4.27,4.46,5.09,5.09,0,0,0-4.63,4.18,5.13,5.13,0,0,0-1-2.74,5.24,5.24,0,0,0-3.26-2Z" transform="translate(-45.42 -184.4)"/></g><g id="Group_170" data-name="Group 170"><path id="Path_16-2-2" data-name="Path 16-2-2" class="cls-5" d="M118.54,222.44h.14a10.39,10.39,0,0,0,10.92-9.82c0,.2,0,.39,0,.59a10.33,10.33,0,0,0,10,10.65h0a12.1,12.1,0,0,0-11.06,9.8,12,12,0,0,0-2.28-6.51,12.38,12.38,0,0,0-7.69-4.73Z" transform="translate(-45.42 -184.4)"/><path id="Path_17-2-2" data-name="Path 17-2-2" class="cls-6" d="M125,224.21H125a3.94,3.94,0,0,0,4.15-3.73c0,.08,0,.15,0,.22a3.94,3.94,0,0,0,3.8,4.05,4.6,4.6,0,0,0-4.2,3.73,4.63,4.63,0,0,0-.86-2.48,4.8,4.8,0,0,0-2.93-1.8Z" transform="translate(-45.42 -184.4)"/></g><g id="Group_171" data-name="Group 171"><path id="Path_16-2-3" data-name="Path 16-2-3" class="cls-5" d="M133.13,237.62h.22a17.83,17.83,0,0,0,18.21-17.45c0,.34,0,.67,0,1a17.76,17.76,0,0,0,17.78,17.74h0a20.76,20.76,0,0,0-18.44,17.45,20.58,20.58,0,0,0-4.28-11.06,21.22,21.22,0,0,0-13.46-7.69Z" transform="translate(-45.42 -184.4)"/><path id="Path_17-2-3" data-name="Path 17-2-3" class="cls-6" d="M144.29,240.31h.09a6.78,6.78,0,0,0,6.91-6.64c0,.13,0,.26,0,.39A6.76,6.76,0,0,0,158,240.8a7.89,7.89,0,0,0-7,6.63,7.84,7.84,0,0,0-1.62-4.2,8.1,8.1,0,0,0-5.12-2.93Z" transform="translate(-45.42 -184.4)"/></g></g></g><g id="Group_178" data-name="Group 178"><circle id="Ellipse_16-2" data-name="Ellipse 16-2" class="cls-1" cx="396.75" cy="352.61" r="108.42"/><path id="Path_277" data-name="Path 277" class="cls-7" d="M399.48,511.37H377.36l64.49-46.73L507,511.37h-23" transform="translate(-45.42 -184.4)"/><path id="Path_278" data-name="Path 278" class="cls-7" d="M387.19,512.4v83.09H496.72V512.4" transform="translate(-45.42 -184.4)"/><path id="Path_279" data-name="Path 279" class="cls-7" d="M473,487V471h19.94v28.64" transform="translate(-45.42 -184.4)"/><g id="Group_177" data-name="Group 177"><g id="Group_174" data-name="Group 174"><path id="Path_16-2-4" data-name="Path 16-2-4" class="cls-5" d="M422.33,557.17h.14a11.54,11.54,0,0,0,12-11h0c0,.22,0,.44,0,.65a11.49,11.49,0,0,0,11.22,11.74,13.43,13.43,0,0,0-12.18,11,13.23,13.23,0,0,0-2.6-7.21,13.68,13.68,0,0,0-8.58-5.18Z" transform="translate(-45.42 -184.4)"/><path id="Path_17-2-4" data-name="Path 17-2-4" class="cls-6" d="M429.51,559.08h.05a4.38,4.38,0,0,0,4.57-4.19c0,.09,0,.17,0,.25a4.36,4.36,0,0,0,4.26,4.46,5.11,5.11,0,0,0-4.63,4.18,5,5,0,0,0-1-2.74,5.22,5.22,0,0,0-3.27-2Z" transform="translate(-45.42 -184.4)"/></g><g id="Group_175" data-name="Group 175"><path id="Path_16-2-5" data-name="Path 16-2-5" class="cls-5" d="M424.67,521.17h.13a10.37,10.37,0,0,0,10.92-9.81,5.83,5.83,0,0,0,0,.59,10.33,10.33,0,0,0,10,10.65,12.09,12.09,0,0,0-11.05,9.8,12,12,0,0,0-2.28-6.51,12.36,12.36,0,0,0-7.69-4.73Z" transform="translate(-45.42 -184.4)"/><path id="Path_17-2-5" data-name="Path 17-2-5" class="cls-6" d="M431.12,523h.05a3.93,3.93,0,0,0,4.14-3.72h0c0,.08,0,.15,0,.23a3.92,3.92,0,0,0,3.8,4,4.61,4.61,0,0,0-4.2,3.73,4.5,4.5,0,0,0-.87-2.47,4.72,4.72,0,0,0-2.92-1.81Z" transform="translate(-45.42 -184.4)"/></g><g id="Group_176" data-name="Group 176"><path id="Path_16-2-6" data-name="Path 16-2-6" class="cls-5" d="M439.25,536.36h.23a17.83,17.83,0,0,0,18.2-17.45c0,.33,0,.67,0,1a17.74,17.74,0,0,0,17.77,17.74A20.77,20.77,0,0,0,457,555.11a20.58,20.58,0,0,0-4.28-11.06,21.22,21.22,0,0,0-13.46-7.69Z" transform="translate(-45.42 -184.4)"/><path id="Path_17-2-6" data-name="Path 17-2-6" class="cls-6" d="M450.41,539.05h.09a6.79,6.79,0,0,0,6.92-6.63h0c0,.12,0,.25,0,.38a6.75,6.75,0,0,0,6.75,6.74h0a7.89,7.89,0,0,0-7,6.63,7.84,7.84,0,0,0-1.62-4.2,8,8,0,0,0-5.12-2.92Z" transform="translate(-45.42 -184.4)"/></g></g></g><g id="Group_184" data-name="Group 184"><circle id="Ellipse_16-3" data-name="Ellipse 16-3" class="cls-1" cx="108.42" cy="364.78" r="108.42"/><g id="Group_179" data-name="Group 179"><path id="Path_280" data-name="Path 280" class="cls-7" d="M103.07,564.56l-7.14,40H101l10-40h81.76l10,40H209l-8.42-40h7.82V551.12H95.93v13.44Z" transform="translate(-45.42 -184.4)"/><path id="Path_281" data-name="Path 281" class="cls-7" d="M141.29,546.56v4.25h25.1l-5.64-14.94-12.07.24-2.41,10Z" transform="translate(-45.42 -184.4)"/><rect id="Rectangle_211" data-name="Rectangle 211" class="cls-7" x="83.33" y="313.82" width="52.3" height="37.65" rx="5.28"/><rect id="Rectangle_212" data-name="Rectangle 212" class="cls-8" x="127.74" y="320" width="3.38" height="4.93"/><rect id="Rectangle_213" data-name="Rectangle 213" class="cls-8" x="127.74" y="326.88" width="3.38" height="14.09"/></g><g id="Group_183" data-name="Group 183"><g id="Group_180" data-name="Group 180"><path id="Path_16-2-7" data-name="Path 16-2-7" class="cls-5" d="M104.08,513.28h.14a11.53,11.53,0,0,0,12-11c0,.21,0,.43,0,.65a11.48,11.48,0,0,0,11.22,11.73h0a13.44,13.44,0,0,0-12.18,11,13.29,13.29,0,0,0-2.6-7.21,13.71,13.71,0,0,0-8.58-5.17Z" transform="translate(-45.42 -184.4)"/><path id="Path_17-2-7" data-name="Path 17-2-7" class="cls-6" d="M111.26,515.19h0a4.37,4.37,0,0,0,4.57-4.18c0,.08,0,.17,0,.25a4.36,4.36,0,0,0,4.26,4.46h0a5.09,5.09,0,0,0-4.62,4.17,5.13,5.13,0,0,0-1-2.74,5.23,5.23,0,0,0-3.26-2Z" transform="translate(-45.42 -184.4)"/></g><g id="Group_181" data-name="Group 181"><path id="Path_16-2-8" data-name="Path 16-2-8" class="cls-5" d="M106.42,477.29h.13a10.39,10.39,0,0,0,10.92-9.81c0,.2,0,.39,0,.59a10.35,10.35,0,0,0,10,10.65,12.09,12.09,0,0,0-11,9.8A12,12,0,0,0,114.1,482a12.34,12.34,0,0,0-7.68-4.73Z" transform="translate(-45.42 -184.4)"/><path id="Path_17-2-8" data-name="Path 17-2-8" class="cls-6" d="M112.87,479.07h0a4,4,0,0,0,4.15-3.73h0c0,.07,0,.15,0,.22a3.93,3.93,0,0,0,3.8,4.05,4.59,4.59,0,0,0-4.2,3.73,4.51,4.51,0,0,0-.87-2.48,4.71,4.71,0,0,0-2.92-1.8Z" transform="translate(-45.42 -184.4)"/></g><g id="Group_182" data-name="Group 182"><path id="Path_16-2-9" data-name="Path 16-2-9" class="cls-5" d="M121,492.47h.23A17.83,17.83,0,0,0,139.43,475c0,.33,0,.67,0,1a17.75,17.75,0,0,0,17.77,17.73h0a20.79,20.79,0,0,0-18.44,17.45,20.61,20.61,0,0,0-4.28-11.06A21.28,21.28,0,0,0,121,492.47Z" transform="translate(-45.42 -184.4)"/><path id="Path_17-2-9" data-name="Path 17-2-9" class="cls-6" d="M132.17,495.16h.09a6.76,6.76,0,0,0,6.91-6.63h0c0,.13,0,.26,0,.38a6.75,6.75,0,0,0,6.76,6.74h0a7.9,7.9,0,0,0-7,6.63,7.91,7.91,0,0,0-1.63-4.2,8.11,8.11,0,0,0-5.12-2.92Z" transform="translate(-45.42 -184.4)"/></g></g></g><g id="Group_189" data-name="Group 189"><circle id="Ellipse_16-4" data-name="Ellipse 16-4" class="cls-1" cx="396.75" cy="118.21" r="108.42"/><rect id="Rectangle_214" data-name="Rectangle 214" class="cls-7" x="437.12" y="105.04" width="26.64" height="65.74"/><rect id="Rectangle_215" data-name="Rectangle 215" class="cls-7" x="334.45" y="105.04" width="26.64" height="65.74"/><path id="Path_282" data-name="Path 282" class="cls-7" d="M411.79,265.82h-17l49.69-36,50.16,36H476.84" transform="translate(-45.42 -184.4)"/><line id="Line_8" data-name="Line 8" class="cls-7" x1="356.85" y1="83.98" x2="356.85" y2="103.22"/><line id="Line_9" data-name="Line 9" class="cls-7" x1="443.17" y1="82.55" x2="443.17" y2="101.79"/><line id="Line_10" data-name="Line 10" class="cls-7" x1="361.09" y1="170.78" x2="382.01" y2="170.78"/><line id="Line_11" data-name="Line 11" class="cls-7" x1="414.77" y1="170.78" x2="435.7" y2="170.78"/><g id="Group_188" data-name="Group 188"><g id="Group_185" data-name="Group 185"><path id="Path_16-2-10" data-name="Path 16-2-10" class="cls-5" d="M419.69,314.17h.15a11.53,11.53,0,0,0,12-11l0,.65a11.49,11.49,0,0,0,11.22,11.74,13.43,13.43,0,0,0-12.18,11,13.31,13.31,0,0,0-2.6-7.21,13.71,13.71,0,0,0-8.59-5.18Z" transform="translate(-45.42 -184.4)"/><path id="Path_17-2-10" data-name="Path 17-2-10" class="cls-6" d="M426.87,316.08h.06a4.39,4.39,0,0,0,4.57-4.19,2.18,2.18,0,0,0,0,.25,4.35,4.35,0,0,0,4.26,4.46h0a5.11,5.11,0,0,0-4.63,4.18,5,5,0,0,0-1-2.74,5.22,5.22,0,0,0-3.26-2Z" transform="translate(-45.42 -184.4)"/></g><g id="Group_186" data-name="Group 186"><path id="Path_16-2-11" data-name="Path 16-2-11" class="cls-5" d="M422,278.18h.13a10.39,10.39,0,0,0,10.92-9.82h0c0,.2,0,.39,0,.59a10.34,10.34,0,0,0,10,10.65,12.1,12.1,0,0,0-11.05,9.8,12.05,12.05,0,0,0-2.28-6.51,12.39,12.39,0,0,0-7.69-4.73Z" transform="translate(-45.42 -184.4)"/><path id="Path_17-2-11" data-name="Path 17-2-11" class="cls-6" d="M428.48,280h0a3.93,3.93,0,0,0,4.15-3.72h0c0,.07,0,.14,0,.22a3.92,3.92,0,0,0,3.8,4.05,4.58,4.58,0,0,0-4.2,3.72,4.5,4.5,0,0,0-.87-2.47,4.69,4.69,0,0,0-2.92-1.8Z" transform="translate(-45.42 -184.4)"/></g><g id="Group_187" data-name="Group 187"><path id="Path_16-2-12" data-name="Path 16-2-12" class="cls-5" d="M436.61,293.36h.23a17.83,17.83,0,0,0,18.21-17.45c0,.33,0,.67,0,1a17.76,17.76,0,0,0,17.78,17.74,20.75,20.75,0,0,0-18.44,17.44,20.71,20.71,0,0,0-4.28-11.05,21.22,21.22,0,0,0-13.46-7.69Z" transform="translate(-45.42 -184.4)"/><path id="Path_17-2-12" data-name="Path 17-2-12" class="cls-6" d="M447.78,296.05h.09a6.78,6.78,0,0,0,6.92-6.63c0,.12,0,.25,0,.38a6.75,6.75,0,0,0,6.75,6.74,7.88,7.88,0,0,0-7,6.63,7.85,7.85,0,0,0-1.63-4.2,8,8,0,0,0-5.11-2.92Z" transform="translate(-45.42 -184.4)"/></g></g></g></g></svg>