<svg id="Laag_1" data-name="Laag 1" xmlns="http://www.w3.org/2000/svg" viewBox="0 0 285.91 285.91"><defs><style>.cls-1{fill:#e4f1fa;}.cls-2,.cls-3{fill:#fed275;}.cls-3{stroke:#fed275;stroke-linecap:round;stroke-linejoin:round;}.cls-4{fill:#eea93c;}</style></defs><title>Schoon check</title><g id="Group_63" data-name="Group 63"><g id="Group_62" data-name="Group 62"><circle id="Ellipse_16" data-name="Ellipse 16" class="cls-1" cx="142.95" cy="142.95" r="142.95"/><g id="Group_20" data-name="Group 20"><path id="Path_15-2" data-name="Path 15-2" class="cls-2" d="M305,397.56l.12.13a13.5,13.5,0,0,0,19.06,1.21h0c-.2.16-.38.33-.57.5a13.45,13.45,0,0,0-.8,19h0a15.75,15.75,0,0,0-19.19-1.35,15.69,15.69,0,0,0,4-8.05,16.09,16.09,0,0,0-2.6-11.46Z" transform="translate(-155.05 -278.05)"/><rect id="Rectangle_66-2" data-name="Rectangle 66-2" class="cls-2" x="288.91" y="353.99" width="26.86" height="27.29" transform="translate(-240.6 365.46) rotate(-85.99)"/><rect id="Rectangle_67-2" data-name="Rectangle 67-2" class="cls-2" x="259.85" y="378.71" width="26.86" height="27.29" transform="translate(-292.29 359.46) rotate(-85.99)"/><path id="Path_16-2" data-name="Path 16-2" class="cls-2" d="M328.18,322.92l.15.17a17.78,17.78,0,0,0,25.09,1.61h0l-.76.66a17.69,17.69,0,0,0-1,25h0a20.7,20.7,0,0,0-25.24-1.77,20.65,20.65,0,0,0,5.23-10.6,21.24,21.24,0,0,0-3.43-15.08Z" transform="translate(-155.05 -278.05)"/><path id="Path_17-2" data-name="Path 17-2" class="cls-2" d="M248.53,343.37l.12.13a13.5,13.5,0,0,0,19.06,1.21h0c-.2.16-.39.33-.58.5a13.45,13.45,0,0,0-.79,19h0a15.75,15.75,0,0,0-19.19-1.35,15.55,15.55,0,0,0,4-8.05,16.15,16.15,0,0,0-2.61-11.46Z" transform="translate(-155.05 -278.05)"/><path id="Path_18-2" data-name="Path 18-2" class="cls-2" d="M222.72,410.41l.16.18A17.78,17.78,0,0,0,248,412.18c-.27.21-.52.43-.77.66a17.7,17.7,0,0,0-1,25,20.7,20.7,0,0,0-25.24-1.77,20.61,20.61,0,0,0,5.23-10.6,21.19,21.19,0,0,0-3.43-15.08Z" transform="translate(-155.05 -278.05)"/></g></g><rect id="Rectangle_99" data-name="Rectangle 99" class="cls-3" x="99.5" y="202.08" width="95.58" height="56.95" rx="3.38"/><path id="Path_256" data-name="Path 256" class="cls-4" d="M302.34,440.68l-68.46,42.88H370.8Z" transform="translate(-155.05 -278.05)"/></g></svg>