<svg id="Laag_1" data-name="Laag 1" xmlns="http://www.w3.org/2000/svg" viewBox="0 0 285.91 285.91"><defs><style>.cls-1{fill:#e4f1fa;}.cls-2,.cls-3{fill:#c2c1c1;stroke-miterlimit:10;}.cls-2{stroke:#030405;stroke-width:2px;}.cls-3{stroke:#c3c1c1;}.cls-4{fill:#fef1d2;}.cls-5{fill:#f29273;}.cls-6,.cls-8{fill:#030405;}.cls-7,.cls-8{isolation:isolate;}.cls-8{font-size:7.78px;font-family:OpenSans, Open Sans;}.cls-9{fill:#4eaa74;}</style></defs><title>selecteer server</title><g id="Group_46" data-name="Group 46"><circle id="Ellipse_16" data-name="Ellipse 16" class="cls-1" cx="142.95" cy="142.95" r="142.95"/><g id="Group_45" data-name="Group 45"><g id="Group_44" data-name="Group 44"><path id="Path_232" data-name="Path 232" class="cls-2" d="M360.91,453.25H236.28A11.24,11.24,0,0,1,225,442V358.21A11.24,11.24,0,0,1,236.28,347H360.91a11.24,11.24,0,0,1,11.24,11.24V442a11.23,11.23,0,0,1-11.24,11.23Z" transform="translate(-155.05 -278.05)"/><path id="Path_233" data-name="Path 233" class="cls-3" d="M281.25,453.91l-7.39,30.66-13.3.06V495h67.72l-14.77-41.12" transform="translate(-155.05 -278.05)"/></g><rect id="Rectangle_93" data-name="Rectangle 93" class="cls-4" x="70.96" y="69.89" width="145.24" height="93.19" rx="10.55"/><rect id="Rectangle_94" data-name="Rectangle 94" class="cls-4" x="70.96" y="142.05" width="145.24" height="21.03"/></g><path id="Path_234" data-name="Path 234" class="cls-5" d="M288.23,540.8c-1-2.24-2.48-5.66-4.61-9.71-4.07-7.75-6.12-9.76-7.75-13.6-1.81-4.26-2.09-8.38-.65-20.23a283.54,283.54,0,0,1,5.68-31.54c1.52-6.21,4.06-10.33,5.73-10.1s2.92,4.73,2.84,10.77L288.33,492l3.8-1c4-1.07,4.66-1.22,5.44-.93,1.94.71,2.66,3.42,2.92,4.88a4,4,0,0,1,7,3.38,5.84,5.84,0,0,1,4.56.86,5.75,5.75,0,0,1,2.23,3.38c1.86,5.45,1.43,9.34.32,12.11-1.51,3.79-4,4.79-5.47,8.57-1.59,4-.9,8.32.35,11.91l-21,5.93" transform="translate(-155.05 -278.05)"/><path id="Icon_material-event-note" data-name="Icon material-event-note" class="cls-6" d="M272.88,378.19H262.47v2.08h10.41ZM275,370.9h-1v-2.07h-2.08v2.08h-8.33v-2.08h-2.08v2.08h-1a2.08,2.08,0,0,0-2.08,2.07h0v14.58a2.09,2.09,0,0,0,2.09,2.08H275a2.09,2.09,0,0,0,2.08-2.08V373a2.08,2.08,0,0,0-2.08-2.08Zm0,16.66H260.38V376.11H275Zm-5.21-5.2h-7.28v2.08h7.28Z" transform="translate(-155.05 -278.05)"/><g id="Group_5" data-name="Group 5"><g id="Selecteer_server" data-name="Selecteer server"><g id="Selecteer_server-2" data-name="Selecteer server-2" class="cls-7"><text class="cls-8" transform="translate(105.61 134.52)">Selecteer server</text></g></g><path id="Icon_ionic-ios-arrow-down" data-name="Icon ionic-ios-arrow-down" class="cls-9" d="M332,411.6l3.5-3.51a.65.65,0,0,1,.93,0h0a.68.68,0,0,1,0,.94l-4,4a.67.67,0,0,1-.92,0l-4-4a.66.66,0,0,1,.94-.94Z" transform="translate(-155.05 -278.05)"/></g></g></svg>